<svg width="206" height="329" viewBox="0 0 206 329" fill="none" xmlns="http://www.w3.org/2000/svg">
<g opacity="0.9">
<path d="M202.034 4.63579e-06L49.4531 123.455L53.4196 128.294L206 4.83858L202.034 4.63579e-06Z" fill="#DB3B30"/>
<path d="M159.625 267.144C150.637 288.729 131.883 299.693 103.881 299.693C65.25 299.693 39.0636 278.279 35.4338 243.931C35.4338 243.845 35.0016 238.792 34.8288 235.622H202.232V235.023C201.627 218.234 199.12 205.814 193.589 192.195C179.589 158.275 145.106 138.06 101.375 138.06C41.6563 138.06 0 177.719 0 234.423C0 290.956 40.4463 328.987 100.684 328.987C148.822 328.987 181.058 308.944 199.12 267.572L199.466 266.801H159.884L159.625 267.144ZM36.6437 216.264L36.8165 215.579C36.8165 215.408 36.903 215.322 36.903 215.151C40.792 199.304 49.5208 186.456 62.0523 178.062C62.9165 177.462 63.7808 176.863 64.645 176.349C64.8179 176.263 65.0771 176.092 65.25 176.006L65.7685 175.749C67.2377 174.892 68.7069 174.122 70.1761 173.436L70.4354 173.351C72.1639 172.58 73.9788 171.809 75.7937 171.209H75.8801C77.695 170.524 79.5963 170.01 81.5841 169.496L81.9298 169.41C83.5718 168.982 85.2139 168.64 87.0288 168.383L87.5473 168.297C87.8066 168.211 88.0659 168.211 88.3251 168.126C89.5351 167.954 90.6586 167.783 91.8685 167.697C95.3255 167.269 98.2639 167.098 101.029 167.098C134.821 167.098 158.588 185.085 164.551 215.151L164.724 215.665H164.637L164.724 216.35C165.415 220.119 165.761 223.545 165.934 226.886H34.9152C35.2609 223.459 35.7795 220.033 36.6437 216.264Z" fill="#DB3B30"/>
</g>
</svg>
