<svg xmlns="http://www.w3.org/2000/svg" width="24" height="25" fill="none"><path fill-rule="evenodd" clip-rule="evenodd" d="M10.325 3.745a5.454 5.454 0 013.857-1.598h2.727a.91.91 0 01.91.91v3.636a.91.91 0 01-.91.909h-2.727V9.42h2.727a.909.909 0 01.882 1.13l-.91 3.636a.909.909 0 01-.881.689h-1.818v6.363a.91.91 0 01-.91.91H9.637a.91.91 0 01-.909-.91v-6.363H6.91a.91.91 0 01-.909-.91V10.33a.91.91 0 01.91-.909h1.817V7.602c0-1.447.575-2.834 1.598-3.857zm3.857.22a3.637 3.637 0 00-3.636 3.637v2.727a.91.91 0 01-.91.91H7.818v1.818h1.818a.91.91 0 01.91.909v6.363h1.818v-6.363a.91.91 0 01.909-.91h2.017l.455-1.818h-2.472a.91.91 0 01-.91-.909V7.602a1.818 1.818 0 011.819-1.818H16V3.966h-1.818z" fill="#000"/></svg>
