<svg xmlns="http://www.w3.org/2000/svg" width="24" height="25" fill="none"><path d="M15.112 13.421c.247.09 1.568.736 1.836.87l.145.07c.189.091.316.153.37.244.067.111.067.647-.157 1.271-.224.625-1.297 1.195-1.813 1.272-.463.069-1.05.098-1.693-.106a15.45 15.45 0 01-1.532-.564c-2.518-1.082-4.22-3.51-4.543-3.971l-.048-.067-.001-.002c-.141-.188-1.096-1.454-1.096-2.765 0-1.232.608-1.877.888-2.175l.053-.056a.99.99 0 01.716-.334c.18 0 .359.001.516.009h.06c.156 0 .352 0 .544.46.078.185.193.464.313.755.227.55.472 1.142.516 1.23.067.134.112.29.022.468a7.098 7.098 0 00-.04.08c-.066.135-.115.235-.229.366-.045.053-.093.11-.14.168a4.505 4.505 0 01-.263.3c-.134.134-.274.279-.118.546.157.268.697 1.144 1.495 1.853a6.953 6.953 0 001.983 1.248c.075.032.135.057.179.08.268.133.425.111.582-.067.157-.178.672-.781.85-1.049.18-.268.359-.223.605-.134z" fill="#000"/><path fill-rule="evenodd" clip-rule="evenodd" d="M4.307 17.414l-.952 3.4 3.447-.928.54.313A9.251 9.251 0 0012 21.447a9.3 9.3 0 009.3-9.3 9.3 9.3 0 10-18.6 0 9.25 9.25 0 001.282 4.716l.325.55zM1.2 22.947l1.49-5.322a10.75 10.75 0 01-1.49-5.478c0-5.964 4.835-10.8 10.8-10.8 5.965 0 10.8 4.836 10.8 10.8 0 5.965-4.835 10.8-10.8 10.8a10.75 10.75 0 01-5.41-1.45l-5.39 1.45z" fill="#000"/></svg>