<svg width="48" height="15" viewBox="0 0 48 15" fill="none" xmlns="http://www.w3.org/2000/svg">
  <path fill-rule="evenodd" clip-rule="evenodd" d="M41.6553 7.43967V0H44.2687V1.52104H43.2679V5.91863H44.2687V7.43967H41.6553ZM45.3847 1.51909V0H48V7.43967H45.3847V5.91863H46.3855V1.51909H45.3847ZM5.61958 8.42313V9.72799C5.61958 11.5295 4.60513 12.5656 2.89286 12.5656H2.77754C1.02618 12.5636 0 11.5295 0 9.72604V4.22225C0 2.47723 1.04378 1.38465 2.77754 1.38465H2.89286C4.60708 1.38465 5.61958 2.47723 5.61958 4.22225V5.3343H3.73336V4.20277C3.73336 3.45491 3.38739 3.09071 2.86745 3.09071H2.81077C2.31625 3.09071 1.9605 3.45296 1.9605 4.19693V9.72799C1.9605 10.5343 2.36511 10.8576 2.81077 10.8576H2.86745C3.34829 10.8576 3.73336 10.5323 3.73336 9.72604V8.42118H5.61958V8.42313ZM12.3963 1.51901H10.4534L9.39399 8.17381L8.21925 1.51901H6.16102L8.48899 11.3561L7.71886 15H9.68328L12.3963 1.51901ZM16.0182 3.16859H13.1703V1.51901H18.0022V3.16859L15.1719 10.7816H18.0589V12.4312H13.1508V10.7816L16.0182 3.16859ZM28.2582 4.7578L30.0779 12.4312H32.5506V1.51901H30.7816V9.07553L29.0303 1.51901H26.4853V12.4312H28.2582V4.7578ZM22.0698 1.38465C20.2266 1.38465 19.2043 2.47723 19.2043 4.22225V9.72604C19.2043 11.4711 20.2266 12.5636 22.0698 12.5636C23.9111 12.5636 24.9509 11.4711 24.9509 9.72604V4.22225C24.9509 2.47723 23.9111 1.38465 22.0698 1.38465ZM23.0061 9.74552C23.0061 10.4934 22.6738 10.8576 22.0796 10.8576C21.4854 10.8576 21.1628 10.4953 21.1628 9.75136V4.19693C21.1628 3.45296 21.4854 3.09071 22.0796 3.09071C22.6738 3.09071 23.0061 3.45491 23.0061 4.20277V9.74552ZM39.6967 4.22225V7.44351H36.0396V9.72799C36.0396 10.5343 36.4598 10.8576 36.8898 10.8576C37.4391 10.8576 37.8124 10.5323 37.8124 9.72604V8.42313H39.6987V9.72604C39.6987 11.5275 38.6803 12.5636 36.8859 12.5636C35.0896 12.5636 34.0771 11.5275 34.0771 9.72604V4.22225C34.0771 2.47723 35.074 1.38465 36.8859 1.38465C38.6979 1.38465 39.6967 2.47723 39.6967 4.22225ZM36.9211 3.09071C36.3855 3.09071 36.0357 3.45296 36.0357 4.19693V5.92831H37.8085V4.20277C37.8085 3.45491 37.4586 3.09071 36.9211 3.09071Z" fill="black"/>
  </svg>
