<svg width="118" height="43" viewBox="0 0 118 43" fill="none" xmlns="http://www.w3.org/2000/svg">
  <path fill-rule="evenodd" clip-rule="evenodd" d="M25.7604 0.998169L6.27319 16.7656L6.77978 17.3835L26.267 1.61614L25.7604 0.998169ZM20.2967 35.1166C19.1539 37.8678 16.7692 39.2652 13.2088 39.2652C8.29671 39.2652 4.96703 36.5359 4.5055 32.158C4.5055 32.1555 4.50274 32.1213 4.49822 32.0652L4.49822 32.0652C4.48254 31.8706 4.44563 31.4125 4.42857 31.099H25.7143V31.0226C25.6374 28.8827 25.3187 27.2997 24.6154 25.5638C22.8352 21.2405 18.4506 18.664 12.8901 18.664C5.2967 18.664 0 23.7188 0 30.9461C0 38.1516 5.14286 42.999 12.8022 42.999C18.9231 42.999 23.022 40.4443 25.3187 35.1712L25.3626 35.0729H20.3297L20.2967 35.1166ZM4.65934 28.6316L4.68132 28.5443C4.68132 28.5334 4.68407 28.5252 4.68681 28.517C4.68956 28.5088 4.69231 28.5006 4.69231 28.4897C5.18681 26.47 6.2967 24.8324 7.89011 23.7625C8 23.686 8.10989 23.6096 8.21978 23.5441C8.23077 23.5386 8.24451 23.5305 8.25824 23.5223L8.25832 23.5222L8.25835 23.5222C8.27205 23.514 8.28575 23.5059 8.29671 23.5004L8.36264 23.4677C8.54945 23.3585 8.73627 23.2603 8.92308 23.1729L8.95605 23.162C9.17583 23.0637 9.4066 22.9655 9.63737 22.8891H9.64835C9.87912 22.8017 10.1209 22.7362 10.3736 22.6707L10.4176 22.6598C10.6264 22.6052 10.8352 22.5615 11.0659 22.5288L11.1319 22.5179C11.1484 22.5124 11.1648 22.5097 11.1813 22.5069C11.1978 22.5042 11.2143 22.5015 11.2308 22.496L11.282 22.4887L11.2821 22.4887L11.2823 22.4887L11.2825 22.4886L11.2827 22.4886C11.4171 22.4694 11.5449 22.4511 11.6813 22.4414C12.1209 22.3869 12.4945 22.365 12.8462 22.365C17.1429 22.365 20.1648 24.6577 20.9231 28.4897L20.9451 28.5552H20.9341L20.9451 28.6425C21.033 29.1229 21.0769 29.5596 21.0989 29.9854H4.43956C4.48352 29.5487 4.54945 29.112 4.65934 28.6316ZM92.055 42.3547L80.9231 28.7625L91.3957 19.5045L91.6484 19.2753H85.7913L74.4066 29.4503V9.66792H69.7803V42.3547H74.4066V34.0356L77.4616 31.339L86.5275 42.3111L86.5605 42.3547H92.055ZM52.2967 26.7749C51.7802 21.5345 47.7143 18.6523 40.8242 18.6523C34.8022 18.6523 30.7582 21.5127 30.7582 25.7814C30.7582 29.5042 33.2527 31.5785 38.6154 32.3318L42.989 33.0087C46.0879 33.5218 47.7692 34.1878 47.7692 36.273C47.7692 38.3146 45.5934 39.5373 41.956 39.5373C37.9231 39.5373 35.3406 37.9543 34.5824 35.0721H30.0659C30.7472 40.0286 35.1428 42.9763 41.956 42.9763C48.4615 42.9763 52.6703 40.1815 52.6703 35.8473C52.6703 31.9934 50.1648 29.9737 44.2747 29.0894L39.4395 28.4125C36.7912 27.9976 35.6044 27.0587 35.6044 25.3556C35.6044 23.3686 37.6593 22.0913 40.8352 22.0913C45.0549 22.0913 47.3406 23.587 48 26.7749H52.2967ZM58.4067 19.2773H63.0331V42.3568H58.4067V19.2773ZM57.7803 12.5391C57.7803 16.4366 63.6594 16.4366 63.6594 12.5936C63.6594 8.70703 57.7803 8.70703 57.7803 12.5391ZM113.78 22.8773L113.813 19.2637H118V42.3759H113.912V42.365L113.725 38.8823C112.022 41.1531 109.022 42.9873 105.45 42.9873C98.2197 42.9873 93.3625 38.0635 93.3625 30.7488C93.3625 23.6306 98.3516 18.6523 105.494 18.6523C108.956 18.6523 112.044 20.5628 113.78 22.8773ZM105.637 39.0133C111.143 39.0133 113.791 34.9193 113.912 31.1091C113.978 28.7618 113.209 26.6329 111.736 25.1263C110.253 23.6088 108.121 22.8009 105.582 22.8009C100.978 22.8009 97.6373 26.1962 97.6373 30.8798C97.6373 35.6726 100.934 39.0133 105.637 39.0133Z" fill="black"/>
  </svg>
