<svg width="53" height="12" viewBox="0 0 53 12" fill="none" xmlns="http://www.w3.org/2000/svg">
  <path d="M29.3957 10.7498V5.54402H36.626V4.29386H29.3957V1.25016H38.6285V0H28.1484V11.9991H38.6494V10.7498H29.3957Z" fill="black" />
  <path d="M0 11.9993V0.000244141H1.24731V10.7501H10.501V11.9993H0Z" fill="black" />
  <path d="M41.653 11.9991V0H42.8993V10.7498H52.153V11.9991H41.653Z" fill="black" />
  <path d="M9.25375 0V2.45852L10.5011 3.26409V0H9.25375Z" fill="black" />
  <path d="M25.5126 8.14598C25.5126 7.34319 25.2617 6.56048 24.795 5.90728C24.3283 5.25408 23.6691 4.76305 22.9097 4.50285C23.247 4.1047 23.4634 3.61837 23.5332 3.10125C23.6031 2.58413 23.5236 2.05781 23.3041 1.58441C23.0846 1.11101 22.7342 0.710286 22.2943 0.429544C21.8545 0.148803 21.3435 -0.000242428 20.8216 2.9599e-07H13.6484V12H21.6956C22.7116 11.9912 23.683 11.5812 24.398 10.8593C25.113 10.1373 25.5136 9.16204 25.5126 8.14598ZM14.8957 1.24826H20.8292C21.2331 1.24221 21.6229 1.39685 21.9127 1.67815C22.2026 1.95946 22.3688 2.34439 22.3748 2.74826C22.3809 3.15213 22.2263 3.54186 21.945 3.83172C21.6636 4.12157 21.2787 4.28781 20.8748 4.29386H14.8957V1.24826ZM21.6956 10.7479H14.8957V5.54117H21.6652C22.3558 5.53713 23.0197 5.8076 23.5109 6.29307C24.002 6.77854 24.2803 7.43924 24.2843 8.12983C24.2883 8.82042 24.0178 9.48432 23.5324 9.97549C23.0469 10.4667 22.3862 10.7449 21.6956 10.7489V10.7479Z" fill="black" />
</svg>
